<?xml version="1.0" encoding="utf-8"?>
<!-- Generator: Adobe Illustrator 24.0.2, SVG Export Plug-In . SVG Version: 6.00 Build 0)  -->
<svg version="1.1" id="logo" xmlns="http://www.w3.org/2000/svg" xmlns:xlink="http://www.w3.org/1999/xlink" x="0px" y="0px"
	 viewBox="0 0 1728 1728" style="enable-background:new 0 0 1728 1728;" xml:space="preserve">
<style type="text/css">
	.st0{fill:#F4F1DE;}
	.st1{fill:#3D405B;}
	.st2{font-family:'CoolveticaRg-Regular';}
	.st3{font-size:749.9487px;}
	.st4{fill:#81B29A;}
</style>
<rect id="background" x="0" class="st0" width="1728" height="1728"/>
<g id="core">
	<text transform="matrix(0.7754 0 0 1 186.6631 1192.707)" class="st1 st2 st3">B</text>
	<path id="a" class="st1" d="M859.97,953.62c0-48.06,6.43-130.29-24.25-185.58c-25.24-45.49-58.95-83.61-131.89-83.61
		c-35.16,0-66.75,8.41-85.91,20.89c-55.47,36.14-69.91,117.68-66.28,155.39l67.24,0.81c2.18-16,3.73-106.43,77.76-111.65
		c71.48-5.04,80.93,107.05,71.48,126.65c-9.45,19.6-58.08,16.58-81.18,18.45c-112.83,9.15-139.25,70.59-139.25,141.36
		c0,27.64-11.38,156.37,10.18,156.37c65.49,0,74.1,0,106.26,0c46.63,0,196.4,0,196.4,0L859.97,953.62z M767.95,1182.54H625.73
		v-164.58c0-16.57,13.43-30,30-30h82.21c16.57,0,30,13.43,30,30V1182.54z"/>
	<circle class="st1" cx="739.53" cy="1089.02" r="15"/>
	<path id="y" class="st1" d="M1119.68,956.13c-19.15,18.41-106.07,18.2-149.6,12.27c-36.98-5.04-69.84-34.91-69.84-112.02V684.43
		h91.85v136.89c0,43.1,25.79,73.65,64.65,73.65c41.68,0,64.65-36.21,64.65-73.65V684.43h91.85v356.8
		c0,98.21-70.65,155.44-159.67,155.44c-101.74,0-153.32-55.82-153.32-145.54h85.49c0,40.98,24.02,66.41,72.07,66.41
		c33.21,0,63.59-28.97,63.59-74.89L1119.68,956.13z"/>
	<path id="t" class="st1" d="M1452.03,944.44h85.49v98.91c0,73.48-42.39,139.19-140.6,139.19c-101.74,0-142.01-65-142.01-139.89
		V460.12h90.44v224.32h192.17v88.62h-192.17v260.4c0,43.8,15.54,69.24,52.99,69.24c36.74,0,53.7-24.73,53.7-67.83V944.44z"/>
</g>
<polygon id="roof" class="st4" points="862.44,301.45 186.66,653.01 1537.52,653.01 "/>
</svg>
