<?xml version="1.0" encoding="utf-8"?>
<!-- Generator: Adobe Illustrator 24.0.2, SVG Export Plug-In . SVG Version: 6.00 Build 0)  -->
<svg version="1.1" id="logo" xmlns="http://www.w3.org/2000/svg" xmlns:xlink="http://www.w3.org/1999/xlink" x="0px" y="0px"
	 viewBox="0 0 1620 1069" style="enable-background:new 0 0 1620 1069;" xml:space="preserve">
<style type="text/css">
	.st0{fill:#3D405B;}
	.st1{font-family:'CoolveticaRg-Regular';}
	.st2{font-size:749.4721px;}
	.st3{fill:#81B29A;}
</style>
<g id="core">
	<text transform="matrix(0.7754 0 0 1 135 979.847)" class="st0 st1 st2">B</text>
	<path id="a" class="st0" d="M807.88,740.91c0-48.03,6.42-130.2-24.24-185.46c-25.22-45.46-58.92-83.56-131.81-83.56
		c-35.14,0-66.71,8.41-85.86,20.88c-55.44,36.12-69.86,117.61-66.24,155.29l67.2,0.81c2.18-15.98,3.73-106.36,77.71-111.58
		c71.43-5.04,80.88,106.98,71.43,126.57c-9.44,19.59-58.04,16.57-81.13,18.44C522.2,691.46,495.8,752.85,495.8,823.58
		c0,27.63-11.38,156.27,10.18,156.27c65.45,0,74.05,0,106.19,0c46.6,0,196.27,0,196.27,0L807.88,740.91z M715.91,969.68H573.79
		V805.2c0-16.56,13.42-29.98,29.98-29.98h82.16c16.56,0,29.98,13.42,29.98,29.98V969.68z"/>
	<circle class="st0" cx="687.52" cy="876.23" r="14.99"/>
	<path id="y" class="st0" d="M1067.42,743.42c-19.14,18.4-106,18.19-149.51,12.26c-36.96-5.04-69.79-34.89-69.79-111.95V471.9h91.79
		V608.7c0,43.07,25.77,73.61,64.61,73.61c41.66,0,64.61-36.18,64.61-73.61V471.9h91.79v356.57c0,98.15-70.61,155.34-159.57,155.34
		c-101.68,0-153.22-55.78-153.22-145.45h85.43c0,40.95,24.01,66.37,72.02,66.37c33.18,0,63.55-28.95,63.55-74.84L1067.42,743.42z"/>
	<path id="t" class="st0" d="M1399.57,731.73H1485v98.85c0,73.43-42.36,139.1-140.51,139.1c-101.68,0-141.92-64.96-141.92-139.8
		V247.72h90.38V471.9H1485v88.56h-192.05V820.7c0,43.78,15.53,69.2,52.96,69.2c36.72,0,53.66-24.71,53.66-67.78V731.73z"/>
</g>
<polygon id="roof" class="st3" points="810.35,89.15 135,440.49 1485,440.49 "/>
</svg>
